<?xml version="1.0" standalone="no"?>
<!DOCTYPE svg PUBLIC "-//W3C//DTD SVG 20010904//EN"
 "http://www.w3.org/TR/2001/REC-SVG-20010904/DTD/svg10.dtd">
<svg version="1.0" xmlns="http://www.w3.org/2000/svg"
 width="1024.000000pt" height="1024.000000pt" viewBox="0 0 1024.000000 1024.000000"
 preserveAspectRatio="xMidYMid meet">
<metadata>
Created by potrace 1.14, written by Peter Selinger 2001-2017
</metadata>
<g transform="translate(0.000000,1024.000000) scale(0.100000,-0.100000)"
fill="#000000" stroke="none">
<path d="M2990 8361 c-92 -21 -147 -60 -200 -143 -50 -77 -80 -158 -129 -348
-104 -408 -138 -699 -121 -1048 9 -187 23 -292 66 -502 26 -130 94 -401 120
-482 l15 -47 -42 -68 c-23 -37 -87 -144 -142 -238 -203 -346 -316 -487 -473
-590 -47 -31 -83 -59 -81 -63 43 -81 162 -266 232 -362 51 -69 97 -135 103
-147 7 -12 18 -28 27 -36 16 -16 2 -36 -125 -170 l-64 -68 29 -87 c33 -95 96
-207 178 -316 66 -87 289 -339 341 -384 33 -29 36 -34 22 -48 -9 -8 -29 -57
-45 -108 l-29 -93 75 -214 c78 -224 177 -543 236 -764 43 -159 97 -394 97
-417 0 -10 2 -18 4 -18 2 0 42 39 90 87 127 131 343 416 379 502 l14 34 33
-64 c42 -83 92 -221 140 -387 21 -74 41 -136 43 -139 3 -2 31 7 63 21 112 46
221 94 264 115 24 11 44 20 45 18 1 -1 35 -40 75 -87 154 -178 330 -358 475
-486 83 -72 204 -184 270 -247 66 -64 122 -112 125 -109 3 4 32 29 65 57 217
180 586 554 786 797 l45 56 85 -28 c46 -15 133 -48 192 -73 71 -30 110 -41
112 -34 2 7 25 80 51 162 38 122 92 273 142 399 6 15 21 0 82 -85 105 -148
229 -299 336 -409 l92 -95 7 40 c8 55 89 391 132 550 65 243 204 660 260 783
15 30 14 39 -12 130 -15 53 -31 102 -35 107 -5 6 45 67 118 145 230 246 350
422 417 613 l28 79 -107 107 -108 108 84 124 c180 264 268 398 268 405 0 4 7
15 16 25 14 16 10 21 -58 71 -181 134 -263 236 -473 583 -44 72 -105 170 -137
220 -32 49 -58 98 -58 109 0 10 29 123 65 250 102 364 133 549 142 841 11 360
-39 721 -148 1080 -34 111 -92 230 -140 288 -33 41 -123 91 -181 102 -47 9
-148 -17 -218 -57 -79 -45 -306 -221 -520 -406 -90 -77 -384 -366 -556 -546
l-123 -129 -103 41 c-187 74 -294 92 -542 92 -254 0 -387 -23 -584 -101 -42
-17 -79 -26 -87 -22 -7 5 -111 109 -231 232 -308 316 -698 658 -919 807 -105
70 -217 102 -295 85z m394 -690 c166 -147 636 -616 719 -719 32 -39 56 -76 53
-81 -22 -35 -273 -181 -312 -181 -7 0 -43 37 -81 82 -105 127 -209 255 -281
346 -36 45 -68 80 -71 77 -6 -7 -100 -325 -101 -342 0 -18 109 -254 231 -496
60 -119 109 -219 109 -222 0 -2 -10 0 -22 5 -13 5 -48 14 -78 20 -30 6 -95 28
-144 50 l-88 39 -32 -23 c-44 -32 -191 -116 -203 -116 -6 0 -13 12 -16 28 -3
15 -17 68 -31 117 -27 94 -66 309 -87 479 -13 112 -7 464 11 586 22 153 72
404 96 483 13 44 24 89 24 99 0 24 105 -56 304 -231z m3718 171 c10 -37 29
-109 42 -161 14 -52 40 -180 57 -285 30 -177 33 -208 33 -426 0 -140 -5 -271
-12 -325 -21 -142 -61 -327 -93 -425 -16 -50 -29 -97 -29 -105 0 -8 -2 -15 -5
-15 -15 0 -197 106 -215 125 l-21 22 -98 -38 c-103 -40 -216 -72 -232 -67 -6
2 69 160 166 352 96 192 175 358 175 368 0 11 -16 72 -35 136 -19 64 -39 136
-45 160 -6 23 -16 42 -23 42 -7 0 -46 -44 -87 -97 -65 -86 -165 -209 -181
-223 -3 -3 -38 -46 -78 -97 l-72 -92 -62 28 c-75 34 -158 83 -212 124 -22 17
-42 32 -44 33 -9 7 174 208 354 388 266 267 387 382 526 501 63 55 126 110
140 122 13 12 26 22 29 22 3 1 13 -29 22 -67z m-3152 -2395 c19 0 71 2 115 4
80 4 80 4 160 -43 44 -26 147 -79 229 -119 112 -55 164 -87 208 -128 104 -96
139 -184 113 -284 -16 -64 -84 -196 -107 -211 -43 -26 -187 97 -227 195 l-23
55 -67 0 c-88 -1 -128 19 -220 113 l-73 75 -107 0 c-94 1 -112 4 -161 28 -113
55 -150 171 -87 265 34 51 71 65 147 57 36 -4 81 -7 100 -7z m2487 -13 c71
-53 87 -146 39 -228 -15 -26 -41 -56 -58 -66 -45 -27 -149 -44 -229 -36 -67 6
-70 5 -91 -21 -13 -16 -48 -54 -79 -85 -69 -69 -137 -94 -224 -83 -52 6 -53 6
-59 -22 -17 -77 -120 -197 -187 -218 -41 -13 -113 81 -144 188 -16 54 -16 61
1 114 43 136 134 222 348 327 83 40 181 91 217 112 l65 39 186 0 c174 0 188
-1 215 -21z m-2722 -445 c80 -20 138 -29 173 -27 l52 3 0 -45 c0 -62 46 -189
89 -246 52 -68 120 -103 234 -118 108 -16 150 -34 178 -79 37 -62 43 -100 29
-195 -12 -82 -98 -442 -140 -582 -17 -59 -39 -142 -85 -315 -34 -131 -75 -321
-75 -347 0 -71 90 -197 289 -403 131 -136 153 -164 214 -273 110 -196 130
-207 387 -206 303 1 326 13 504 279 15 22 87 105 159 184 178 195 233 263 269
335 31 61 31 61 19 141 -6 44 -31 154 -56 245 -58 215 -204 777 -223 860 -8
36 -15 101 -16 145 -2 139 47 193 194 215 93 14 149 40 191 88 39 44 105 181
114 237 12 74 10 72 88 78 75 6 191 33 280 67 28 11 56 20 61 20 18 0 -31
-324 -69 -458 -52 -181 -117 -266 -286 -379 -53 -35 -118 -83 -144 -108 l-48
-44 6 -93 c6 -110 18 -142 62 -163 67 -31 123 -13 246 77 90 67 144 98 229
133 88 37 144 77 180 130 88 128 210 561 210 745 l0 69 36 -24 c88 -59 278
-70 374 -20 29 15 15 30 172 -182 6 -7 -20 -56 -73 -138 -96 -150 -126 -213
-141 -294 -18 -95 17 -208 92 -299 17 -20 30 -41 30 -46 0 -16 -135 -170 -241
-273 -88 -86 -231 -208 -303 -259 -19 -13 -19 -15 7 -76 14 -35 40 -110 58
-167 l32 -104 -17 -66 c-9 -36 -41 -142 -71 -236 -30 -93 -62 -199 -71 -235
-10 -36 -18 -66 -19 -68 -1 -1 -44 42 -96 95 -52 54 -143 148 -203 210 l-109
113 -35 -58 c-97 -161 -210 -384 -265 -523 l-61 -156 -41 28 c-172 116 -195
129 -213 118 -9 -6 -51 -51 -92 -100 -41 -49 -144 -156 -229 -237 -172 -164
-216 -218 -281 -346 -28 -55 -61 -103 -88 -128 -42 -39 -46 -40 -98 -36 -76 6
-115 47 -188 194 -52 103 -67 124 -159 217 -56 56 -143 141 -192 187 -50 47
-125 124 -168 173 -43 48 -82 87 -87 87 -6 0 -29 -14 -52 -31 -173 -123 -198
-138 -198 -118 0 59 -243 557 -341 700 l-16 24 -115 -115 c-63 -63 -153 -156
-200 -206 -81 -86 -86 -90 -91 -65 -2 14 -25 85 -50 156 -47 131 -127 399
-127 422 0 16 96 281 111 307 10 17 3 28 -53 80 -35 34 -96 88 -134 121 -118
102 -234 217 -304 299 l-68 78 52 77 c71 104 95 188 77 274 -16 75 -22 87
-133 264 l-89 142 38 53 c20 29 50 72 66 96 25 37 33 43 54 37 125 -31 265
-24 358 19 l55 25 0 -62 c0 -87 62 -386 106 -514 84 -247 137 -309 330 -382
49 -19 110 -53 155 -87 101 -76 178 -114 231 -114 91 0 125 47 135 182 l6 83
-34 33 c-31 31 -65 55 -266 186 -143 93 -200 212 -253 529 -11 66 -20 148 -20
183 l0 64 37 -15 c21 -9 92 -29 158 -46z m1458 -543 c45 -19 92 -72 121 -136
13 -30 54 -176 90 -325 37 -148 86 -346 111 -440 25 -93 61 -244 80 -335 20
-91 38 -173 41 -183 5 -16 -1 -18 -63 -15 l-68 3 -12 75 c-6 41 -15 117 -19
168 l-7 92 -353 0 -353 0 -5 -32 c-3 -18 -10 -80 -16 -138 -6 -58 -13 -120
-16 -137 l-5 -33 -73 0 -74 0 60 228 c89 341 207 804 234 921 51 218 116 300
242 301 29 0 67 -6 85 -14z"/>
<path d="M27 103 c-25 -4 -27 -8 -27 -54 0 -48 1 -49 30 -49 30 0 30 1 30 55
0 30 -1 54 -2 54 -2 -1 -15 -4 -31 -6z"/>
</g>
</svg>
